<?xml version="1.0" encoding="utf-8"?>
<!-- Generator: Adobe Illustrator 21.1.0, SVG Export Plug-In . SVG Version: 6.00 Build 0)  -->
<svg version="1.1" id="Layer_1" xmlns="http://www.w3.org/2000/svg" xmlns:xlink="http://www.w3.org/1999/xlink" x="0px" y="0px"
	 viewBox="0 0 180.59 184.73" style="enable-background:new 0 0 180.59 184.73;" xml:space="preserve">
<style type="text/css">
	.st0{fill:#231F20;}
</style>
<g>
	<g>
		<g>
			<path class="st0" d="M1.11,2.41c0,26.48,0.45,52.97-0.85,79.42c-1.11,22.73,1.24,46.41,7.38,68.4
				c2.23,7.98,5.87,16.84,13.4,21.16c9.1,5.22,20.18,6.69,30.41,7.76c4.72,0.49,9.7,1.23,14.41,0.24c4.48-0.94,8.21-4.06,11.39-7.2
				c7.28-7.19,9.8-16.84,12.23-26.49c3.42-13.61,4.05-27.73,4.58-41.71c0.57-15.05,0.52-30.11,0.52-45.17c0-3.22-5-3.22-5,0
				c0,23.52,0.35,47.24-2.18,70.66c-1.12,10.32-3.39,22.16-8.02,31.54c-2.15,4.36-5.63,8.18-9.56,11.04
				c-4.24,3.09-8.84,2.95-13.86,2.54c-10.53-0.85-21.47-2.19-31.1-6.87c-8.5-4.13-11.51-14.55-13.45-23.08
				C6.68,124,4.22,103.02,5.27,81.83c1.3-26.45,0.85-52.94,0.85-79.42C6.11-0.8,1.11-0.81,1.11,2.41L1.11,2.41z"/>
		</g>
	</g>
	<g>
		<g>
			<path class="st0" d="M81.88,143.44c0.55,4.1,2.53,7.22,4.03,11.01c1.54,3.9,2.08,7.91,4.63,11.35
				c4.81,6.49,12.44,11.4,19.8,14.48c7.98,3.33,16.9,4.01,25.46,4.12c7.48,0.09,15.92,1.71,22.28-3.14
				c6.03-4.59,10.75-12.28,14.09-18.99c4.06-8.13,6.23-17.08,7.43-26.05c1.4-10.51,0.9-21.05,0.86-31.62
				c-0.04-11.05,0.04-21.87-1.07-32.89c-1.12-11.01-2.73-21.14-7-31.43c-1.92-4.65-4.19-9.05-6.41-13.56
				c-1.6-3.26-2.5-7.09-5.49-9.42c-2.51-1.95-6.07,1.56-3.54,3.54c2.36,1.84,3.04,4.9,4.26,7.5c1.57,3.35,3.44,6.55,4.94,9.95
				c3.65,8.22,6.32,16.44,7.39,25.39c2.18,18.16,2.02,36.25,2.07,54.51c0.05,16.48-2.2,33.25-11.16,47.42
				c-4.52,7.15-9.07,14.08-18.3,14.04c-7.54-0.03-15.37,0.01-22.84-1.09c-8.79-1.29-17.11-4.92-23.89-10.71
				c-3.8-3.24-6.25-6.64-7.64-11.46c-1.26-4.36-4.33-8.51-4.92-12.96C86.46,140.3,81.46,140.26,81.88,143.44L81.88,143.44z"/>
		</g>
	</g>
</g>
</svg>
