<?xml version="1.0" encoding="utf-8"?>
<!-- Generator: Adobe Illustrator 21.1.0, SVG Export Plug-In . SVG Version: 6.00 Build 0)  -->
<svg version="1.1" id="Layer_1" xmlns="http://www.w3.org/2000/svg" xmlns:xlink="http://www.w3.org/1999/xlink" x="0px" y="0px"
	 viewBox="0 0 288.81 348.55" style="enable-background:new 0 0 288.81 348.55;" xml:space="preserve">
<style type="text/css">
	.st0{fill:#231F20;}
</style>
<g>
	<g>
		<g>
			<path class="st0" d="M19.93,136.28c-5.16,8.25-9.92,16.75-13.33,25.89c-3.41,9.14-4.67,18.49-5.55,28.15
				c-1.56,17.29-3.13,40.48,9.02,54.64c5.12,5.97,12.08,10.19,18.97,13.82c8.62,4.53,17.83,9.37,27.35,11.63
				c4.67,1.1,9.46,1.27,14.22,1.65c5.67,0.45,11.42,1.93,17.12,1.63c4.05-0.22,7.87-1.41,11.61-2.92c4.08-1.64,8.8-2.71,12.57-4.99
				c7.82-4.72,14.92-12.64,19.63-20.36c2.94-4.82,4.7-10,6.52-15.31c1.45-4.22,2.69-10.95,5.78-14.29c2.18-2.36-1.35-5.91-3.54-3.54
				c-4.24,4.59-5.71,12.54-7.67,18.3c-3.12,9.18-7.68,17.02-14.74,23.77c-2.89,2.76-6.05,5.91-9.65,7.67
				c-3.88,1.9-8.4,3.31-12.49,4.81c-9.18,3.36-18.46,0.72-27.9,0.05c-10.53-0.76-19.48-4.13-28.93-8.71
				c-6.67-3.23-13.45-6.56-19.34-11.11C4.47,235.32,4.4,214.29,5.54,196.74c0.66-10.14,1.54-20.32,4.74-30.02
				c3.28-9.94,8.43-19.08,13.97-27.92C25.96,136.06,21.64,133.55,19.93,136.28L19.93,136.28z"/>
		</g>
	</g>
	<g>
		<g>
			<path class="st0" d="M129.43,240.79c1.51,3.18,3.07,6.22,5.91,8.41c4.18,3.22,9.76,5.16,14.48,7.48
				c8.71,4.27,17.59,7.88,27.31,8.99c11.34,1.29,23,0.21,34.4,0.45c10.06,0.22,19.8-0.13,28.93-4.81c3.91-2,7.41-4.58,10.67-7.51
				c4.06-3.63,8.43-6.59,12.69-9.94c6.46-5.07,11.52-11.81,15.19-19.13c7.46-14.89,9.92-32.06,9.77-48.57
				c-0.09-10.16-2.61-18.06-7.75-26.77c-5.87-9.94-14.09-18.17-19.81-28.14c-1.6-2.79-5.92-0.27-4.32,2.52
				c8.35,14.55,23.76,26.56,26.41,43.99c2.24,14.74-0.2,31.84-5.03,45.82c-2.61,7.56-6.4,14.86-11.75,20.86
				c-5.34,5.98-12.45,9.86-18.34,15.24c-7.8,7.13-16.8,10.98-27.38,11.42c-9.84,0.41-19.78-0.05-29.64-0.02
				c-11.51,0.04-21.94-1.13-32.57-5.78c-4.76-2.09-9.39-4.5-14.06-6.79c-5.37-2.64-8.24-4.87-10.81-10.28
				C132.36,235.37,128.05,237.9,129.43,240.79L129.43,240.79z"/>
		</g>
	</g>
	<g>
		<g>
			<path class="st0" d="M31.59,260.53c-0.02,8.69-0.46,17.43,0.74,26.07c1.09,7.84,3.9,15.3,5.02,23.14
				c1.2,8.42,2.58,16.82,4.04,25.21c0.75,4.33,1.22,9.56,4.43,12.85c2.25,2.31,5.78-1.23,3.54-3.54c-3.01-3.08-3.15-10.45-3.81-14.5
				c-1.29-7.95-2.4-15.93-3.75-23.86c-1.27-7.45-3.99-14.53-4.8-22.08c-0.83-7.73-0.42-15.54-0.4-23.29
				C36.6,257.31,31.6,257.31,31.59,260.53L31.59,260.53z"/>
		</g>
	</g>
	<g>
		<g>
			<path class="st0" d="M262.58,244.03c0,8.6,0,17.2,0,25.8c0,7.75,1.12,16.05-1.08,23.58c-1.94,6.64-4.1,13.01-4.7,19.95
				c-0.68,7.81-0.22,15.83-0.22,23.67c0,3.22,5,3.22,5,0c0-7.83-0.5-15.87,0.22-23.67c0.72-7.69,4-14.55,5.32-22.05
				c1.23-7.04,0.46-14.37,0.46-21.48c0-8.6,0-17.2,0-25.8C267.58,240.82,262.58,240.81,262.58,244.03L262.58,244.03z"/>
		</g>
	</g>
	<g>
		<g>
			<path class="st0" d="M132.09,253.03c0,8.97,0.02,17.94,0,26.92c-0.02,7.59-0.95,15.23-0.46,22.82c0.21,3.19,0.85,6.26,1.39,9.4
				c0.57,3.31,0.32,6.66,0.93,9.95c0.75,4.08,1.58,7.72,1.54,11.92c-0.03,4-0.35,7.99-0.4,12c-0.04,3.22,4.96,3.22,5,0
				c0.09-7.53,1-14.96-0.64-22.39c-0.74-3.34-0.74-6.63-1.16-10.01c-0.46-3.65-1.41-7.18-1.65-10.87
				c-0.49-7.59,0.44-15.22,0.46-22.82c0.02-8.97,0-17.94,0-26.92C137.09,249.82,132.09,249.81,132.09,253.03L132.09,253.03z"/>
		</g>
	</g>
	<g>
		<g>
			<path class="st0" d="M26.09,136.04c-0.03-12.25,5.01-23.41,9.01-34.75c3.94-11.18,6.89-22.42,8.57-34.15
				c1.59-11.14,3.22-22.32,1.38-33.55c-0.92-5.63-2.52-11.24-4.52-16.59C38.64,11.95,36.1,7.19,35,1.88
				c-0.65-3.15-5.47-1.82-4.82,1.33c1.05,5.06,3.39,9.6,5.24,14.39c1.93,4.99,3.47,10.24,4.48,15.5
				c2.42,12.59,0.17,25.75-1.87,38.25c-1.79,10.98-5.19,21.6-8.98,32.04c-3.87,10.67-7.99,21.14-7.96,32.66
				C21.1,139.25,26.1,139.26,26.09,136.04L26.09,136.04z"/>
		</g>
	</g>
	<g>
		<g>
			<path class="st0" d="M258.84,120.38c-19.34-11.92-30.16-33.14-38.71-53.44c-4.2-9.97-6.13-21.5-5.29-32.28
				c0.44-5.61,1.8-10.91,3.58-16.23c0.88-2.63,2.16-5.15,2.97-7.8c0.6-1.96,0.5-4.75,1.96-6.32c2.19-2.35-1.33-5.89-3.54-3.54
				c-2.74,2.94-2.91,7.59-4.35,11.22c-2.37,5.98-4.32,12.16-5.19,18.55c-1.61,11.86,0.05,24.48,4.21,35.69
				c2.17,5.85,5.32,11.32,7.95,16.97c2.78,5.97,5.69,11.8,9.39,17.27c6.51,9.61,14.57,18.1,24.49,24.22
				C259.06,126.39,261.58,122.07,258.84,120.38L258.84,120.38z"/>
		</g>
	</g>
</g>
</svg>
