<?xml version="1.0" encoding="utf-8"?>
<!-- Generator: Adobe Illustrator 21.1.0, SVG Export Plug-In . SVG Version: 6.00 Build 0)  -->
<svg version="1.1" id="Layer_1" xmlns="http://www.w3.org/2000/svg" xmlns:xlink="http://www.w3.org/1999/xlink" x="0px" y="0px"
	 viewBox="0 0 250.14 127.12" style="enable-background:new 0 0 250.14 127.12;" xml:space="preserve">
<style type="text/css">
	.st0{fill:#231F20;}
</style>
<g>
	<g>
		<g>
			<path class="st0" d="M1.25,10.26c0,9-0.26,18.04,0.08,27.03c0.3,7.87-2.03,15.3-1.12,23.26c0.36,3.12,1.24,6.1,2.95,8.76
				c2.19,3.42,4.99,5.88,6.04,9.97c0.92,3.57,1.26,7.14,2.9,10.5c2.04,4.17,2.32,8.36,3.96,12.63c4.92,12.83,16,22.74,29.98,24.28
				c8.92,0.98,18.19-0.09,27.16,0.2c3.28,0.11,6.52,0.41,9.66-0.75c2.71-1.01,4.82-2.95,7.16-4.58c3.49-2.43,7.21-2,10.89-3.65
				c3.23-1.45,4.82-4.52,7.08-7.05c2.85-3.2,6.11-5.19,9.67-7.43c2.42-1.53,3.61-3.17,3.99-6c0.42-3.18-4.58-3.15-5,0
				c-0.29,2.18-6.65,4.68-8.29,6.09c-2.98,2.56-4.96,6.35-7.93,8.76c-2.94,2.39-7.35,1.72-10.7,3.53c-2.7,1.46-4.82,3.88-7.59,5.2
				c-4.15,1.98-9.78,0.85-14.26,0.84c-5.13-0.01-10.25-0.03-15.38-0.01c-10.01,0.03-18.35-2.93-25.27-10.35
				c-2.99-3.21-5.21-6.97-6.62-11.13c-1.34-3.98-1.51-7.94-3.41-11.76c-2.22-4.46-2.22-9.31-4.12-13.82
				c-1.41-3.34-4.25-5.61-6.01-8.72c-4.64-8.21-0.58-17.52-0.6-26.16c-0.03-9.88-0.19-19.76-0.19-29.64
				C6.25,7.04,1.25,7.03,1.25,10.26L1.25,10.26z"/>
		</g>
	</g>
	<g>
		<g>
			<path class="st0" d="M106.72,73.06c2.09,4.15,4.41,8.13,7.26,11.81c2.89,3.73,6.56,6.75,9.38,10.52
				c4.86,6.52,5.33,15.12,12.28,19.75c8.45,5.62,15.52,9.4,25.95,9.38c5.41-0.01,10.79-0.63,16.2-0.72
				c5.73-0.1,10.88,1.03,16.44,2.19c8.57,1.78,14.44-0.14,20.97-5.77c5.49-4.72,13.65-8.59,16.9-15.38
				c1.97-4.12-0.21-8.95,1.83-12.87c1.86-3.57,6.28-5.27,8.42-8.83c4.37-7.29,6.66-16.94,7.31-25.34c0.4-5.21,0.79-10.98,0.12-16.17
				c-0.7-5.43-3.99-9.12-6.72-13.64c-2.84-4.7-1.96-11.05-3.9-16.26c-1.46-3.91-2.59-7.78-5.43-10.94c-2.16-2.4-5.68,1.15-3.54,3.54
				c2.45,2.72,3.32,6.54,4.6,9.88c1.51,3.94,0.97,7.94,2.01,11.95c0.98,3.78,3.73,6.49,5.64,9.8c2.81,4.87,2.51,9.51,2.42,14.91
				c-0.16,8.99-1.52,17.7-5.03,26.05c-1.7,4.04-3.93,6.07-7.12,8.9c-2.41,2.14-4.05,4.69-4.44,7.94c-0.55,4.58,0.72,7.88-2.65,11.69
				c-2.45,2.77-5.68,4.64-8.62,6.82c-2.79,2.06-5.21,4.58-8,6.63c-4.24,3.13-8.42,3.29-13.46,2.28c-8.91-1.79-16.76-2.52-25.88-1.98
				c-10.1,0.59-19.12,0.4-27.69-5.67c-1.57-1.12-3.38-2.12-4.86-3.34c-2.23-1.84-2.75-4.08-3.79-6.71
				c-1.48-3.75-3.29-7.34-5.67-10.61c-2.61-3.59-5.99-6.45-8.81-9.85c-3.16-3.8-5.61-8.09-7.82-12.48
				C109.59,67.66,105.27,70.19,106.72,73.06L106.72,73.06z"/>
		</g>
	</g>
	<g>
		<g>
			<path class="st0" d="M189.58,105.13c0.04-6.27,3.73-8.91,8.15-12.59c3.93-3.27,6.85-7.58,10.35-11.28
				c2.21-2.34-1.32-5.88-3.54-3.54c-2.29,2.43-4.34,5.06-6.57,7.55c-2.2,2.46-4.8,4.27-7.25,6.41c-4.11,3.59-6.11,8-6.14,13.44
				C184.56,108.35,189.56,108.35,189.58,105.13L189.58,105.13z"/>
		</g>
	</g>
	<g>
		<g>
			<path class="st0" d="M53.75,88.4c2.36,0.11,4.21,2.75,6.32,3.66c2.71,1.17,5.7,0.67,8.43,1.62c3.07,1.07,4.54,4.17,7.07,5.98
				c2.36,1.69,5.3,2.14,7.69,3.78c2.66,1.83,5.16-2.5,2.52-4.32c-3.08-2.12-6.5-2.71-9.23-5.41c-2.12-2.1-3.75-4.03-6.72-4.86
				c-3.72-1.04-6.72-0.74-10.1-3.03c-2.05-1.39-3.4-2.3-5.98-2.42C50.53,83.25,50.54,88.25,53.75,88.4L53.75,88.4z"/>
		</g>
	</g>
	<g>
		<g>
			<path class="st0" d="M151.34,54.51c1.24,3.48,1.89,7.31,4.31,10.24c2.56,3.1,6.53,4.49,9.16,7.53c2.11,2.44,5.63-1.11,3.54-3.54
				c-2.21-2.55-5.24-3.84-7.72-6.03c-2.77-2.45-3.28-6.2-4.46-9.53C155.09,50.17,150.26,51.47,151.34,54.51L151.34,54.51z"/>
		</g>
	</g>
</g>
</svg>
