<?xml version="1.0" encoding="utf-8"?>
<!-- Generator: Adobe Illustrator 21.1.0, SVG Export Plug-In . SVG Version: 6.00 Build 0)  -->
<svg version="1.1" id="Layer_1" xmlns="http://www.w3.org/2000/svg" xmlns:xlink="http://www.w3.org/1999/xlink" x="0px" y="0px"
	 viewBox="0 0 269.29 188.83" style="enable-background:new 0 0 269.29 188.83;" xml:space="preserve">
<style type="text/css">
	.st0{fill:#231F20;}
</style>
<g>
	<g>
		<g>
			<path class="st0" d="M84.77,118.25c9.35,0.07,18.85-0.7,27.95-3.04c4.08-1.05,8.13-2.7,11.83-4.7c3.44-1.87,7.23-3.49,10-6.32
				c2.25-2.3-1.28-5.84-3.54-3.54c-2.42,2.47-5.96,3.89-8.98,5.54c-3.8,2.07-8.05,3.73-12.3,4.59c-8.3,1.68-16.49,2.54-24.95,2.47
				C81.55,113.22,81.55,118.22,84.77,118.25L84.77,118.25z"/>
		</g>
	</g>
	<g>
		<g>
			<path class="st0" d="M132.1,103.49c1.5,0.54,2.91,2.73,4.14,3.72c1.5,1.22,3.13,2.26,4.79,3.25c3.47,2.08,7.14,3.83,10.9,5.32
				c8.66,3.43,17.65,6.13,26.84,7.7c3.15,0.54,4.5-4.28,1.33-4.82c-8.91-1.53-17.63-4.11-26.05-7.39
				c-4.15-1.62-8.26-3.59-11.99-6.05c-3.02-1.99-5.24-5.34-8.63-6.56C130.4,97.58,129.1,102.41,132.1,103.49L132.1,103.49z"/>
		</g>
	</g>
	<g>
		<g>
			<path class="st0" d="M136.6,101.08c0-16.44,0-32.89,0-49.33c0-3.22-5-3.22-5,0c0,16.44,0,32.89,0,49.33
				C131.6,104.3,136.6,104.3,136.6,101.08L136.6,101.08z"/>
		</g>
	</g>
	<g>
		<g>
			<path class="st0" d="M131.6,108.41c0,26,0,52,0,78c0,3.22,5,3.22,5,0c0-26,0-52,0-78C136.6,105.2,131.6,105.19,131.6,108.41
				L131.6,108.41z"/>
		</g>
	</g>
	<g>
		<g>
			<path class="st0" d="M3.6,9.08c0,16.06-3.93,31.88-3.58,48.02c0.33,15.34,7.9,28.08,13.62,41.84c2.61,6.28,5.22,11.44,9.65,16.63
				c1.05,1.22,2.23,2.39,3.24,3.64c1.88,2.35,2.42,5.01,3.46,7.75c1.25,3.26,2.93,6.35,3.88,9.73c2.1,7.51,1.02,15.29,1.96,22.92
				c0.37,3,1,5.81,2.52,8.44c1.12,1.94,1.85,2.54,2.1,4.9c0.19,1.77-0.14,3.67-0.19,5.45c-0.09,3.22,4.91,3.22,5,0
				c0.08-2.85,0.59-5.95-0.24-8.75c-0.91-3.06-3.24-5.18-3.91-8.43c-1.54-7.45-0.38-15.21-1.73-22.74
				c-0.54-3.02-1.55-5.83-2.75-8.64c-1.51-3.55-2.5-7.62-4.3-11.03c-1.36-2.57-3.63-4.59-5.51-6.78c-3.1-3.63-5.3-6.95-7.12-11.34
				C13.84,86.58,5.37,72.81,5.02,57.11C4.66,40.96,8.6,25.15,8.6,9.08C8.6,5.86,3.6,5.86,3.6,9.08L3.6,9.08z"/>
		</g>
	</g>
	<g>
		<g>
			<path class="st0" d="M261.6,2.41c0,17.15,0.1,33.97,2.03,51.03c0.88,7.79,0.61,15.58,0.63,23.41c0.01,7.92-0.02,15.65-1.46,23.47
				c-0.6,3.25-1.39,6.61-3.51,9.23c-2.34,2.89-5.14,5.5-7.53,8.4c-4.23,5.12-8.53,10.75-10.62,17.15
				c-5.09,15.61-5.56,31.05-5.54,47.32c0,3.22,5,3.22,5,0c-0.01-8.44-0.23-16.94,0.67-25.35c0.87-8.09,2.76-17.57,6.64-24.77
				c3.68-6.83,8.7-12.7,14.01-18.3c4.01-4.22,5.24-9.36,6.14-14.98c1.18-7.41,1.23-14.68,1.21-22.17
				c-0.02-7.83,0.25-15.62-0.63-23.41c-1.92-17.06-2.03-33.88-2.03-51.03C266.6-0.8,261.6-0.81,261.6,2.41L261.6,2.41z"/>
		</g>
	</g>
</g>
</svg>
