<?xml version="1.0" encoding="utf-8"?>
<!-- Generator: Adobe Illustrator 21.1.0, SVG Export Plug-In . SVG Version: 6.00 Build 0)  -->
<svg version="1.1" id="Layer_1" xmlns="http://www.w3.org/2000/svg" xmlns:xlink="http://www.w3.org/1999/xlink" x="0px" y="0px"
	 viewBox="0 0 268.84 157.41" style="enable-background:new 0 0 268.84 157.41;" xml:space="preserve">
<style type="text/css">
	.st0{fill:#231F20;}
</style>
<g>
	<g>
		<g>
			<path class="st0" d="M0.01,23.4c0,10.63-0.15,21.3,0.96,31.89C2.1,66.09,4.83,76.65,6.93,87.28c2.14,10.84,4,21.78,6.58,32.53
				c1.6,6.65-0.18,13.51,8.02,15.1c7.4,1.44,15.49,0.75,22.98,1.32c10.67,0.81,21.29,2.12,31.93,3.26
				c10.62,1.14,21.44,2.32,32.14,2.02c6.26-0.18,11.4-2.17,15.28-7.22c2.94-3.83,5.03-8.29,7.46-12.44
				c2.84-4.87,5.78-9.69,8.53-14.62c6.21-11.16,10.62-23.15,16.31-34.57c1.43-2.87-2.88-5.41-4.32-2.52
				c-4.28,8.6-7.74,17.57-11.93,26.21c-4.25,8.76-9.48,16.99-14.32,25.42c-3.27,5.69-6.05,12.89-13.17,14.38
				c-8.83,1.86-19.48-0.06-28.39-0.89c-18.35-1.72-36.66-4.56-55.13-4.88c-2.2-0.04-5.6,0.46-7.56-0.66
				c-2.05-1.17-2.45-8.92-3.01-11.25c-2.28-9.48-3.95-19.13-5.83-28.7c-2.18-11.14-5.16-22.27-6.44-33.56
				C4.84,45.34,5.01,34.35,5.01,23.4C5,20.19,0,20.18,0.01,23.4L0.01,23.4z"/>
		</g>
	</g>
	<g>
		<g>
			<path class="st0" d="M142.5,108.9c0.56,10.13,4.7,19,8.4,28.27c2.46,6.16,3.27,15.08,9.63,18.67c5.96,3.36,13.38,0.48,19.48-0.91
				c11.54-2.62,23.18-5.01,34.82-7.15c11.74-2.15,23.49-3.67,35.4-4.35c6.29-0.36,15.12,1.78,17.33-5.93
				c2.08-7.27,1.15-16.34,0.52-23.71c-0.98-11.33-2.34-22.65-3.57-33.95c-1.42-13.02-2.97-26.03-4.31-39.06
				c-1.32-12.8-3.84-25.57-4.7-38.39c-0.21-3.19-5.22-3.22-5,0c0.66,9.95,2.66,19.77,3.77,29.67c1.13,10.02,2.09,20.07,3.24,30.09
				c2.21,19.22,5.24,38.72,5.99,58.05c0.13,3.36,0.09,6.75-0.04,10.12c-0.06,1.52,0.03,3.29-0.45,4.75c-0.92,2.81-2.61,3-5.35,2.99
				c-9.18-0.04-18.6,0.99-27.68,2.23c-18.76,2.55-37.51,6.49-55.9,10.95c-4,0.97-9.08,2.34-12.37-0.88
				c-2.99-2.92-3.57-7.98-4.91-11.79c-3.48-9.89-8.69-18.98-9.28-29.68C147.32,105.7,142.32,105.68,142.5,108.9L142.5,108.9z"/>
		</g>
	</g>
</g>
</svg>
