<?xml version="1.0" encoding="utf-8"?>
<!-- Generator: Adobe Illustrator 21.1.0, SVG Export Plug-In . SVG Version: 6.00 Build 0)  -->
<svg version="1.1" id="Layer_1" xmlns="http://www.w3.org/2000/svg" xmlns:xlink="http://www.w3.org/1999/xlink" x="0px" y="0px"
	 viewBox="0 0 246.79 181.13" style="enable-background:new 0 0 246.79 181.13;" xml:space="preserve">
<style type="text/css">
	.st0{fill:#231F20;}
</style>
<g>
	<g>
		<g>
			<path class="st0" d="M48.99,0c-8.17,0.08-13.95,8.71-18.86,14.19c-7.52,8.37-13.27,17.06-18.15,27.19
				C6.45,52.87,1.78,63.21,0.42,76.08c-0.6,5.72-0.75,11.77,0.84,17.35c1.66,5.83,5.21,11.09,7.83,16.5
				c5.54,11.44,13.03,20.72,21.38,30.22c7.36,8.37,14.6,16.33,25.01,20.94c10.81,4.79,22.14,3.46,33.4,0.99
				c9.95-2.18,16.02-9.87,22.89-16.9c8.41-8.62,16.25-19.8,17.66-32.08c0.75-6.54,0.53-13.58,0.44-20.17
				c-0.08-5.74-0.95-11.29-4.36-16.05c-1.86-2.59-6.2-0.1-4.32,2.52c5.59,7.79,3.65,19.38,3.53,28.46
				c-0.15,11.05-5.46,21.41-12.64,29.64c-3.03,3.47-6.38,6.64-9.65,9.89c-3.11,3.09-6.08,6.94-10.27,8.62
				c-4.85,1.94-10.61,2.42-15.74,3.03c-5.28,0.63-10.2,0.53-15.3-1.12c-9.65-3.12-17.23-9.93-23.74-17.45
				c-6.92-8-14.38-15.7-19.76-24.88c-2.5-4.27-4.4-8.84-6.68-13.22c-3.07-5.89-5.64-10.88-5.87-17.7C4.69,73.15,7.45,62,12.44,51.7
				c4.97-10.25,9.63-20.28,16.97-29.1c2.72-3.27,5.6-6.42,8.44-9.59C40.64,9.9,44.45,5.04,48.99,5C52.21,4.97,52.22-0.03,48.99,0
				L48.99,0z"/>
		</g>
	</g>
	<g>
		<g>
			<path class="st0" d="M193.38,8.11c13.92,13.89,26.69,30.85,35.9,48.27c9.52,18.01,12.22,38.81,12.26,58.93
				c0.01,4.79,0,9.61-0.2,14.4c-0.25,5.95-1.8,10.07-6.02,14.33c-6.93,7.02-15.1,13.21-23.19,18.79
				c-8.6,5.94-16.38,11.12-27.01,12.36c-9.17,1.06-18.93,1.23-27.72-1.79c-4.8-1.65-9.57-3.68-13.85-6.44
				c-4.45-2.87-7.23-7.04-9.96-11.47c-2.68-4.33-5.72-8.35-8.55-12.57c-1.59-2.38-3.2-4.75-4.81-7.11c-1.39-2.05-2.22-4.38-3.7-6.36
				c-1.9-2.55-6.25-0.06-4.32,2.52c2.92,3.9,5.29,8.58,7.99,12.7c2.96,4.51,6.22,8.76,9.06,13.35c5.3,8.55,11.17,13.76,20.45,17.75
				c16.76,7.21,39.99,7.86,55.74-2.43c9.3-6.08,18.11-12.58,26.61-19.72c7.63-6.41,13.51-12.1,14.2-22.45
				c1.46-21.78,0.12-45.11-7.53-65.74c-4.19-11.29-10.78-21.21-17.57-31.07c-7.27-10.57-15.16-20.71-24.26-29.79
				C194.64,2.3,191.1,5.84,193.38,8.11L193.38,8.11z"/>
		</g>
	</g>
</g>
</svg>
